<?xml version="1.0" encoding="UTF-8" standalone="no"?>
<svg
   id="Ebene_1"
   data-name="Ebene 1"
   viewBox="0 0 1024 1024"
   version="1.1"
   sodipodi:docname="icon_mono.svg"
   inkscape:version="1.2.2 (b0a8486541, 2022-12-01)"
   xmlns:inkscape="http://www.inkscape.org/namespaces/inkscape"
   xmlns:sodipodi="http://sodipodi.sourceforge.net/DTD/sodipodi-0.dtd"
   xmlns="http://www.w3.org/2000/svg"
   xmlns:svg="http://www.w3.org/2000/svg">
  <sodipodi:namedview
     id="namedview37"
     pagecolor="#505050"
     bordercolor="#eeeeee"
     borderopacity="1"
     inkscape:showpageshadow="0"
     inkscape:pageopacity="0"
     inkscape:pagecheckerboard="0"
     inkscape:deskcolor="#505050"
     showgrid="false"
     inkscape:zoom="0.3346533"
     inkscape:cx="509.4825"
     inkscape:cy="609.5861"
     inkscape:window-width="956"
     inkscape:window-height="1131"
     inkscape:window-x="0"
     inkscape:window-y="0"
     inkscape:window-maximized="0"
     inkscape:current-layer="Ebene_1" />
  <defs
     id="defs4">
    <style
       id="style2">.cls-1{fill:#fff;}.cls-2{fill:#fff;}</style>
  </defs>
  <title
     id="title6">MQTT_Logo_farbig</title>
  <path
     id="path8"
     style="fill:#ffffff"
     class="cls-1"
     d="M 512 0 C 229.68084 0 0 229.68084 0 512 A 508.9 508.9 0 0 0 74.839844 778.26953 C 77.846501 783.16953 80.926754 788.02342 84.080078 792.83008 A 30.54 30.54 0 0 0 92 787.74023 L 238.48047 641.14062 L 238.58008 641.25977 A 17.43 17.43 0 0 1 249.75 637.25977 A 17.14 17.14 0 0 1 261.94922 642.25977 L 285.94922 666.25977 C 290.58919 670.89974 294.48995 672.43945 297.66992 672.43945 C 302.91992 672.43945 306.25086 668.27055 307.88086 666.81055 L 337.10938 637.58008 C 337.18935 637.50008 337.23055 637.42935 337.31055 637.35938 C 347.61052 627.04941 346.62958 621.35938 334.09961 621.35938 L 332.09961 621.35938 L 254.56055 624.35938 C 247.56055 625.02935 240.71083 625.35938 234.13086 625.35938 C 232.67086 625.35938 231.21906 625.36055 229.78906 625.31055 L 227.73047 625.39062 L 227.73047 625.26953 C 204.49053 624.47953 185.24036 619.26989 175.15039 609.16992 C 143.32048 577.34001 159.78007 509.25977 211.91992 457.16992 C 246.06983 423.03004 310.51007 404.16992 359.91992 404.16992 L 363.08008 404.16992 C 363.84008 404.16992 364.58961 404.10937 365.34961 404.10938 A 107.91 107.91 0 0 1 389.28906 406.81055 A 77 77 0 0 1 408 412.90039 C 421.39997 418.68036 443.34961 437.49023 443.34961 437.49023 C 443.63961 437.78023 443.88039 438.07914 444.15039 438.36914 C 444.90039 439.15914 447.76945 442.3707 448.43945 443.2207 C 448.63945 443.4507 448.81953 443.68992 449.01953 443.91992 C 467.79947 466.91986 468.41084 486.9707 482.80078 486.9707 L 482.84961 486.9707 C 498.60955 486.9707 516.94094 469.30906 516.96094 469.28906 L 557.71094 428.58984 A 65.89 65.89 0 0 1 594.16016 405.83008 A 10.86 10.86 0 0 1 595.32031 405.5293 L 595.86914 405.41016 C 596.01914 405.41016 596.14078 405.34031 596.30078 405.32031 C 625.41069 400.78034 641.06909 389.04052 646.78906 383.81055 L 649.36914 381.23047 L 709.67969 321 A 92.74 92.74 0 0 1 753.32031 294.7793 A 28.71 28.71 0 0 1 761.60938 292.93945 C 761.84935 292.93945 762.07055 292.86984 762.31055 292.83984 C 763.31055 292.66984 764.37992 292.53039 765.41992 292.40039 C 793.65983 288.22039 813.21917 272.04997 819.86914 265.75 L 822.40039 263.2207 L 865.49023 220.13086 C 865.49023 220.13086 872.97956 215.08008 877.76953 215.08008 L 928.89062 215.08008 C 926.19065 211.30008 923.34906 207.61039 920.53906 203.90039 C 919.08906 201.99039 917.7007 200.01914 916.2207 198.11914 A 0.69 0.69 0 0 1 916.10938 197.99023 C 915.91938 197.74023 915.71953 197.49977 915.51953 197.25977 C 911.65956 192.31977 907.68062 187.46992 903.64062 182.66992 C 903.23065 182.17992 902.83992 181.66992 902.41992 181.16992 C 808.39022 70.430259 668.28952 -1.1368672e-13 512 0 z M 902.41992 249.90039 C 886.46998 249.90039 877.91992 257.04039 875.91992 258.90039 L 845.67969 289.13086 C 842.34969 292.70086 832.68089 305.58912 846.88086 322.78906 C 846.94086 322.86906 846.9693 322.93 847.0293 323 A 92.44 92.44 0 0 1 870.25 384.38086 L 870.59961 452.59961 L 807.33984 472.26953 C 805.84987 472.77953 804.34008 473.26969 802.83008 473.67969 L 802.33984 473.83008 A 93 93 0 0 1 694 425.17969 A 13.78 13.78 0 0 0 668 431.41992 L 668 432.10938 C 668.57 441.10935 671.91977 449.85992 672.25977 451.41992 L 672.25977 451.51953 C 672.79977 453.37953 673.25992 455.25969 673.66992 457.17969 L 673.66992 457.25977 C 676.49992 469.48971 672.49058 483.84019 683.31055 494.66016 L 725 536.33984 C 726.62 537.78984 729.99922 541.9707 735.19922 541.9707 C 738.38922 541.9707 742.27995 540.41927 746.91992 535.7793 L 770.91992 511.7793 A 17.19 17.19 0 0 1 783.11914 506.7207 A 17.48 17.48 0 0 1 794.30078 510.7207 L 794.41016 510.59961 L 986.92969 703.19922 C 989.24969 697.46589 991.46365 691.68602 993.57031 685.85938 C 995.64031 680.13938 997.57094 674.37052 999.46094 668.56055 L 999.66992 667.96094 L 999.66992 668 A 511.44 511.44 0 0 0 970.23047 283.85938 L 969.89062 283.19922 C 967.13065 277.70922 964.31914 272.27039 961.36914 266.90039 C 958.23581 261.18708 955.00013 255.52039 951.66016 249.90039 L 902.41992 249.90039 z M 902.4707 283.85938 L 931.9707 283.85938 A 477.33 477.33 0 0 1 955.61719 334.4082 A 478.12 478.12 0 0 0 931.91992 283.92969 L 902.41992 283.92969 A 11.65 11.65 0 0 0 898.41992 284.49023 L 876.9375 305.98242 A 126.43 126.43 0 0 0 876.92969 305.9707 L 898.4707 284.41992 A 11.65 11.65 0 0 1 902.4707 283.85938 z M 904.61914 477.63477 L 904.61914 477.68945 L 880.61914 485.15039 L 831.98242 500.27344 L 831.91992 500.21094 L 880.66992 485.08008 L 904.61914 477.63477 z M 654.17969 523.48047 A 23.26 23.26 0 0 0 642.58008 526.66992 L 642.58008 526.59961 A 65.45 65.45 0 0 1 595 534.41016 A 112.67 112.67 0 0 0 572.11914 532.06055 C 568.38914 532.06055 564.70053 532.24938 561.06055 532.60938 C 551.44057 533.54936 549.06049 546.7501 560.48047 559.08008 L 587.86914 586.48047 C 589.49914 587.93047 592.87008 592.09961 598.08008 592.09961 C 601.26006 592.09961 605.1608 590.55992 609.80078 585.91992 L 633.80078 561.91992 A 17.2 17.2 0 0 1 646 556.86914 A 17.43 17.43 0 0 1 657.16992 560.86914 L 657.28906 560.75 L 849.69922 753.2207 L 850.16992 753.68945 C 852.16992 755.58945 860.71996 762.68945 876.66992 762.68945 L 950.76953 762.68945 A 17.54 17.54 0 0 1 957.5 764.03906 C 959.92 759.77908 962.27698 755.48062 964.57031 751.14062 L 965.0293 750.25977 C 967.30928 745.92977 969.55094 741.56992 971.71094 737.16992 L 946.26953 711.73047 L 946.2793 711.7793 L 791.42969 556.92969 A 11.74 11.74 0 0 0 783.7207 553.65039 C 780.92072 553.65039 777.57039 554.83953 773.65039 558.26953 L 748.07031 583.84961 A 17.19 17.19 0 0 1 735.85938 588.91016 A 17.42 17.42 0 0 1 724.65039 584.82031 A 12.74 12.74 0 0 1 722.48047 583.08008 L 669.89062 530.48047 C 664.50064 525.09047 658.88967 523.48047 654.17969 523.48047 z M 504.58008 562 A 20.14 20.14 0 0 0 489.9707 568.09961 C 484.37073 574.30958 465.25085 593.5698 433.46094 606.75977 L 433.2793 606.84961 C 417.41933 613.79958 396.76927 628.11925 385.2793 638.69922 L 310.40039 713.58008 A 14.22 14.22 0 0 1 308.23047 715.33008 A 17.49 17.49 0 0 1 297 719.39062 A 17.15 17.15 0 0 1 284.80078 714.33008 L 259.19922 688.75 C 255.27922 685.33 251.94062 684.14063 249.14062 684.14062 A 11.56 11.56 0 0 0 241.57031 687.28906 L 105.74023 823.2207 C 109.2069 827.72737 112.74605 832.1832 116.35938 836.58984 C 119.83935 840.81984 123.35977 844.97008 127.00977 849.08008 C 127.13977 849.23008 127.26039 849.38906 127.40039 849.53906 C 221.29012 956.40876 358.89045 1024 512 1024 C 673.55952 1024 817.821 948.73037 911.7207 831.4707 L 911.78906 831.4707 C 912.32906 830.7907 912.84086 830.08039 913.38086 829.40039 C 916.57419 825.40039 919.70287 821.32633 922.76953 817.17969 C 923.52953 816.17969 924.31055 815.17969 925.06055 814.17969 C 929.06052 808.72969 932.98956 803.17984 936.76953 797.58984 L 852 797.58984 A 17.34 17.34 0 0 1 839.75 792.49023 L 654.33008 607.08008 A 11.72 11.72 0 0 0 646.61914 603.81055 C 643.81914 603.81055 640.48052 604.99995 636.56055 608.41992 L 611 634 A 17.16 17.16 0 0 1 598.80078 639 A 17.42 17.42 0 0 1 587.55078 635 A 13.75 13.75 0 0 1 585.38086 633.25 L 521.73047 569.59961 C 516.39047 564.26961 510.27005 562 504.58008 562 z M 783.16992 596.64062 L 783.20898 596.67969 L 772.05078 607.83008 A 51.48 51.48 0 0 1 760.81055 616.35938 L 760.76953 616.32031 A 51.48 51.48 0 0 0 772.00977 607.78906 L 783.16992 596.64062 z M 505.08008 600.93945 L 505.08594 600.94531 A 201.12 201.12 0 0 1 477.9043 621.74023 A 201.12 201.12 0 0 0 505.08008 600.93945 z M 143.25391 623.95703 C 145.63274 627.12875 148.25007 630.15108 151.10938 633.00977 C 158.79935 640.70974 168.60925 646.71977 180.44922 651.00977 L 180.36719 651.09375 C 168.61981 646.78683 158.84401 640.79343 151.17969 633.11914 C 148.28937 630.22882 145.6533 627.16696 143.25391 623.95703 z M 973.25781 637.38477 A 477.33 477.33 0 0 1 972.49023 640.76953 L 972.44336 640.72266 C 972.7509 639.62393 972.95801 638.48647 973.25781 637.38477 z M 646.16992 646.83008 L 815.76953 816.4707 A 51 51 0 0 0 852.01953 831.4707 L 867.32031 831.4707 C 867.24666 831.55255 867.16746 831.62914 867.09375 831.71094 L 852 831.71094 A 51 51 0 0 1 815.76953 816.4707 L 646.14453 646.85547 L 646.16992 646.83008 z M 416.8125 656.54883 C 413.74828 658.89211 410.98773 661.15948 408.74023 663.18945 L 334.41016 737.51953 A 46.4 46.4 0 0 1 328.50977 742.51953 A 51.49 51.49 0 0 1 328.47656 742.53711 A 46.4 46.4 0 0 0 334.35938 737.55078 L 408.68945 663.2207 C 410.94876 661.18232 413.73026 658.90242 416.8125 656.54883 z M 606.04492 672.06055 A 50.83 50.83 0 0 1 598.82031 673 A 51.53 51.53 0 0 1 598.79883 672.99609 A 50.83 50.83 0 0 0 606.04492 672.06055 z M 109.0625 722.61523 L 91.849609 739.88086 A 475 475 0 0 1 91.837891 739.85352 L 109.0625 722.61523 z M 151.42969 825.48047 A 481.81 481.81 0 0 0 177.44922 852.89258 C 168.45706 844.06407 159.69729 834.99916 151.41992 825.49023 L 151.42969 825.48047 z " />
  <path
     class="cls-2"
     d="M993.58,685.87h0q-3.17,8.75-6.63,17.34Q990.41,694.61,993.58,685.87Z"
     id="path10"
     style="fill:#ffffff" />
  <path
     class="cls-2"
     d="M971.72,737.23q-3.24,6.59-6.67,13Q968.47,743.82,971.72,737.23Z"
     id="path12"
     style="fill:#ffffff" />
  <path
     class="cls-2"
     d="M964.56,751.22q-3.43,6.48-7.06,12.87Q961.13,757.7,964.56,751.22Z"
     id="path14"
     style="fill:#ffffff" />
  <path
     class="cls-2"
     d="M928.89,215.09q-6.15-8.61-12.66-17h0Q922.73,206.49,928.89,215.09Z"
     id="path18" />
  <path
     class="cls-2"
     d="M84.11,792.83q-4.74-7.2-9.24-14.56h0C77.85,783.19,81,788,84.11,792.83Z"
     id="path20" />
</svg>
